<svg xmlns="http://www.w3.org/2000/svg" width="1000" height="900" viewBox="0 0 1000 900">
    <!-- Path for China -->
    <path d="M 100.00 50.00 L 100.00 50.00 L 100.12 50.21 L 102.72 54.71 L 102.88 54.99 L 103.16 55.47 L 120.88 86.17 L 120.80 86.03 L 120.68 85.82 L 120.60 85.68 L 120.52 85.54 L 120.32 85.20 L 119.96 84.58 L 127.44 97.39 L 129.60 101.13 L 127.92 98.22 L 132.20 105.63 L 133.68 108.06 L 135.84 111.80 L 138.36 116.16 L 140.00 118.86 L 138.28 115.89 L 139.08 117.13 L 144.48 126.34 L 146.12 129.19 L 143.44 124.41 L 140.76 119.64 L 142.44 122.40 L 143.52 124.13 L 143.64 124.20 L 144.40 125.38 L 145.72 127.53 L 143.96 124.49 L 146.52 128.64 L 152.52 138.89 L 156.93 146.24 L 161.64 153.99 L 159.28 151.01 L 146.20 127.80 L 154.44 141.80 L 167.40 163.83 L 180.76 186.69 L 184.08 191.89 L 172.59 171.30 L 172.88 171.80 L 139.32 113.67 L 125.00 89.83 L 126.12 90.81 L 118.28 77.37 L 149.48 131.96 L 161.84 153.37 L 175.47 176.15 L 188.79 198.39 L 190.63 200.33 L 202.80 220.57 L 213.92 239.56 L 222.56 252.30 L 234.44 271.91 L 303.26 390.69 L 333.28 439.78 L 341.10 448.19 L 308.00 390.17 L 283.76 343.48 L 280.96 336.69 L 280.92 334.96 L 289.30 348.77 L 297.68 362.32 L 276.80 331.70 L 281.40 338.70 L 299.56 370.85 L 325.80 408.95 L 330.92 408.12 L 335.48 414.08 L 337.64 415.05 L 338.90 418.20 L 351.56 437.36 L 354.68 442.48 L 365.24 459.94 L 373.08 469.64 L 373.55 465.60 L 366.04 448.16 L 365.12 445.05 L 368.88 449.62 L 373.59 455.13 L 380.64 466.25 L 381.36 467.22 L 385.84 471.51 L 391.48 476.85 L 397.17 482.83 L 397.72 479.76 L 396.12 477.26 L 401.20 476.50 L 405.04 475.39 L 409.68 477.33 L 414.16 475.81 L 422.24 488.83 L 422.52 475.88 L 425.36 478.72 L 427.63 479.18 L 427.76 467.08 L 432.60 467.01 L 438.11 468.78 L 444.84 471.30 L 456.76 480.73 L 469.48 504.14 L 477.40 508.32 L 486.00 508.12 L 494.52 508.85 L 498.64 511.40 L 502.68 512.57 L 509.04 511.70 L 515.44 511.56 L 518.96 508.65 L 524.36 504.98 L 526.96 506.01 L 550.65 531.63 L 555.48 522.71 L 562.28 508.72 L 564.29 501.90 L 568.52 496.25 L 570.88 492.85 L 573.80 481.83 L 574.56 469.71 " fill="none" stroke="#BF3100" stroke-width="4" stroke-opacity="0.8" stroke-linecap="round" stroke-linejoin="round"/>
    <!-- End Point -->
    <circle cx="574.56" cy="469.71" r="8" fill="#BF3100" stroke="#fff" stroke-width="3"/>
</svg>