<svg xmlns="http://www.w3.org/2000/svg" width="1000" height="900" viewBox="0 0 1000 900">

    <!-- India -->
    <path d="M 119.80 84.29 L 121.80 87.76 L 123.44 90.60 L 123.84 91.29 L 126.44 95.80 L 126.84 96.49 L 130.60 103.00 L 133.32 107.71 L 136.68 113.53 L 136.36 112.98 L 136.72 113.60 L 138.80 117.20 L 143.28 124.96 L 146.88 131.20 L 146.88 131.20 L 148.64 134.25 L 149.04 134.94 L 150.24 137.02 L 154.92 145.12 L 168.08 167.92 L 151.24 138.75 L 154.76 144.85 L 153.84 143.25 L 155.52 146.16 L 158.56 151.43 L 157.76 150.04 L 156.92 148.59 L 159.16 152.47 L 155.68 146.44 L 156.44 146.23 L 156.00 145.61 L 150.64 136.33 L 146.76 129.61 L 145.56 127.52 L 148.20 131.96 L 149.80 134.45 L 148.92 132.65 L 155.64 144.15 L 159.49 150.68 L 158.24 148.24 L 160.52 151.91 L 159.36 149.49 L 160.16 150.87 L 154.40 140.48 L 155.76 142.56 L 162.84 154.69 L 163.29 155.60 L 162.12 153.44 L 161.57 152.06 L 169.80 165.77 L 169.31 162.71 L 172.76 168.13 L 173.60 169.58 L 173.00 167.85 L 174.84 170.20 L 178.80 176.23 L 181.52 180.11 L 188.07 190.07 L 189.28 190.92 L 192.05 193.91 L 198.08 202.84 L 202.57 208.67 L 209.80 219.12 L 216.20 227.71 L 214.32 222.24 L 219.84 229.72 L 223.84 234.43 L 226.15 235.38 L 231.92 241.77 L 237.39 248.75 L 237.44 245.93 L 241.84 251.06 L 242.64 251.47 L 241.52 249.26 L 242.00 248.98 L 247.16 253.62 L 251.28 257.29 L 252.84 259.44 L 254.82 258.56 L 257.20 263.67 L 257.12 260.20 L 265.68 272.26 L 270.08 277.80 L 273.40 280.64 L 283.80 293.39 L 285.52 291.93 L 293.04 300.66 L 296.88 302.33 L 305.88 313.06 L 312.90 319.67 L 317.32 321.79 L 322.88 324.91 L 326.20 325.67 L 329.24 323.46 L 337.84 332.39 L 343.80 338.28 L 345.92 342.09 L 352.28 350.34 L 353.23 346.28 L 356.68 352.55 L 358.93 357.30 L 357.44 352.62 L 362.84 358.37 L 365.64 355.33 L 371.60 362.32 L 376.96 369.67 L 385.51 375.87 L 392.97 384.25 L 398.72 395.30 L 407.97 411.20 L 414.65 416.95 L 420.64 419.41 L 424.00 420.80 L 428.76 422.81 L 433.29 425.96 L 452.28 437.36 L 455.88 436.52 L 458.40 438.92 L 460.20 435.69 L 461.60 432.27 L 450.84 424.75 L 459.00 430.15 L 461.60 427.73 " fill="none" stroke="#EE7309" stroke-width="4" stroke-opacity="0.8" stroke-linecap="round" stroke-linejoin="round"/>
    <circle cx="461.60" cy="427.73" r="8" fill="#EE7309" stroke="#fff" stroke-width="3"/>
    <!-- China -->
    <path d="M 100.00 50.00 L 100.00 50.00 L 100.12 50.21 L 102.72 54.71 L 102.88 54.99 L 103.16 55.47 L 120.88 86.17 L 120.80 86.03 L 120.68 85.82 L 120.60 85.68 L 120.52 85.54 L 120.32 85.20 L 119.96 84.58 L 127.44 97.39 L 129.60 101.13 L 127.92 98.22 L 132.20 105.63 L 133.68 108.06 L 135.84 111.80 L 138.36 116.16 L 140.00 118.86 L 138.28 115.89 L 139.08 117.13 L 144.48 126.34 L 146.12 129.19 L 143.44 124.41 L 140.76 119.64 L 142.44 122.40 L 143.52 124.13 L 143.64 124.20 L 144.40 125.38 L 145.72 127.53 L 143.96 124.49 L 146.52 128.64 L 152.52 138.89 L 156.93 146.24 L 161.64 153.99 L 159.28 151.01 L 146.20 127.80 L 154.44 141.80 L 167.40 163.83 L 180.76 186.69 L 184.08 191.89 L 172.59 171.30 L 172.88 171.80 L 139.32 113.67 L 125.00 89.83 L 126.12 90.81 L 118.28 77.37 L 149.48 131.96 L 161.84 153.37 L 175.47 176.15 L 188.79 198.39 L 190.63 200.33 L 202.80 220.57 L 213.92 239.56 L 222.56 252.30 L 234.44 271.91 L 303.26 390.69 L 333.28 439.78 L 341.10 448.19 L 308.00 390.17 L 283.76 343.48 L 280.96 336.69 L 280.92 334.96 L 289.30 348.77 L 297.68 362.32 L 276.80 331.70 L 281.40 338.70 L 299.56 370.85 L 325.80 408.95 L 330.92 408.12 L 335.48 414.08 L 337.64 415.05 L 338.90 418.20 L 351.56 437.36 L 354.68 442.48 L 365.24 459.94 L 373.08 469.64 L 373.55 465.60 L 366.04 448.16 L 365.12 445.05 L 368.88 449.62 L 373.59 455.13 L 380.64 466.25 L 381.36 467.22 L 385.84 471.51 L 391.48 476.85 L 397.17 482.83 L 397.72 479.76 L 396.12 477.26 L 401.20 476.50 L 405.04 475.39 L 409.68 477.33 L 414.16 475.81 L 422.24 488.83 L 422.52 475.88 L 425.36 478.72 L 427.63 479.18 L 427.76 467.08 L 432.60 467.01 L 438.11 468.78 L 444.84 471.30 L 456.76 480.73 L 469.48 504.14 L 477.40 508.32 L 486.00 508.12 L 494.52 508.85 L 498.64 511.40 L 502.68 512.57 L 509.04 511.70 L 515.44 511.56 L 518.96 508.65 L 524.36 504.98 L 526.96 506.01 L 550.65 531.63 L 555.48 522.71 L 562.28 508.72 L 564.29 501.90 L 568.52 496.25 L 570.88 492.85 L 573.80 481.83 L 574.56 469.71 " fill="none" stroke="#BF3100" stroke-width="4" stroke-opacity="0.8" stroke-linecap="round" stroke-linejoin="round"/>
    <circle cx="574.56" cy="469.71" r="8" fill="#BF3100" stroke="#fff" stroke-width="3"/>
    <!-- United States -->
    <path d="M 361.40 500.40 L 370.60 516.20 L 375.24 524.10 L 390.76 550.70 L 390.92 550.42 L 400.56 566.71 L 405.12 574.19 L 416.37 593.39 L 408.76 579.11 L 416.00 591.23 L 422.48 602.32 L 422.93 602.26 L 427.32 609.59 L 432.48 618.11 L 428.60 609.73 L 431.16 613.33 L 438.00 624.90 L 443.56 634.26 L 446.28 638.97 L 439.95 624.96 L 447.64 638.27 L 439.39 622.74 L 441.60 624.49 L 454.88 648.74 L 451.16 639.66 L 453.16 641.87 L 457.36 647.77 L 457.80 646.60 L 458.28 645.62 L 462.32 652.49 L 458.64 643.90 L 453.00 631.77 L 446.76 620.26 L 450.64 627.67 L 454.04 632.87 L 457.20 637.37 L 463.44 647.49 L 466.36 651.84 L 461.40 639.38 L 466.00 645.41 L 471.28 654.82 L 475.32 658.91 L 478.36 661.69 L 481.28 662.32 L 483.24 666.54 L 482.92 666.82 L 482.64 665.36 L 486.00 668.83 L 488.32 670.63 L 487.28 659.96 L 491.44 667.85 L 494.44 669.87 L 496.20 667.65 L 499.04 666.19 L 500.92 661.41 L 504.88 662.73 L 507.32 664.19 L 509.08 663.08 L 510.32 660.51 L 513.08 661.01 L 513.08 665.56 L 514.64 664.53 L 516.20 663.77 L 517.28 663.42 L 518.72 662.31 L 520.28 661.14 L 521.64 660.17 L 522.60 662.11 L 523.84 659.82 L 526.32 655.93 L 526.60 656.84 L 528.64 654.14 L 530.04 651.31 L 531.88 648.66 L 532.92 645.20 L 535.08 641.18 L 534.32 639.16 L 534.48 637.25 L 534.04 634.12 L 534.04 631.77 L 535.60 625.18 L 537.48 620.39 L 537.36 616.59 L 538.00 608.98 L 537.28 606.33 L 539.48 603.63 L 539.48 601.97 L 538.80 598.58 L 540.28 600.17 L 553.48 610.15 L 560.48 612.43 L 561.76 602.87 L 559.32 600.31 L 562.56 600.79 L 563.36 600.65 L 563.23 597.27 L 563.77 598.70 L 564.52 598.92 L 566.28 593.10 L 560.67 586.05 L 561.20 586.80 L 563.92 588.60 L 566.73 587.89 L 565.28 585.00 L 564.59 585.77 L 565.51 580.02 L 563.72 575.23 L 564.48 572.66 L 565.15 566.79 L 564.72 564.49 L 564.24 564.35 L 564.28 562.62 L 563.64 558.05 L 561.40 558.60 L 560.56 560.61 L 564.52 555.41 L 564.44 554.03 L 563.37 557.54 L 562.08 557.28 L 560.60 557.77 L 566.72 547.03 L 563.52 553.13 L 564.71 551.90 " fill="none" stroke="#1E6DA9" stroke-width="4" stroke-opacity="0.8" stroke-linecap="round" stroke-linejoin="round"/>
    <circle cx="564.71" cy="551.90" r="8" fill="#1E6DA9" stroke="#fff" stroke-width="3"/>
</svg>