<svg xmlns="http://www.w3.org/2000/svg" width="1000" height="900" viewBox="0 0 1000 900">
    <!-- Path for India -->
    <path d="M 119.80 84.29 L 121.80 87.76 L 123.44 90.60 L 123.84 91.29 L 126.44 95.80 L 126.84 96.49 L 130.60 103.00 L 133.32 107.71 L 136.68 113.53 L 136.36 112.98 L 136.72 113.60 L 138.80 117.20 L 143.28 124.96 L 146.88 131.20 L 146.88 131.20 L 148.64 134.25 L 149.04 134.94 L 150.24 137.02 L 154.92 145.12 L 168.08 167.92 L 151.24 138.75 L 154.76 144.85 L 153.84 143.25 L 155.52 146.16 L 158.56 151.43 L 157.76 150.04 L 156.92 148.59 L 159.16 152.47 L 155.68 146.44 L 156.44 146.23 L 156.00 145.61 L 150.64 136.33 L 146.76 129.61 L 145.56 127.52 L 148.20 131.96 L 149.80 134.45 L 148.92 132.65 L 155.64 144.15 L 159.49 150.68 L 158.24 148.24 L 160.52 151.91 L 159.36 149.49 L 160.16 150.87 L 154.40 140.48 L 155.76 142.56 L 162.84 154.69 L 163.29 155.60 L 162.12 153.44 L 161.57 152.06 L 169.80 165.77 L 169.31 162.71 L 172.76 168.13 L 173.60 169.58 L 173.00 167.85 L 174.84 170.20 L 178.80 176.23 L 181.52 180.11 L 188.07 190.07 L 189.28 190.92 L 192.05 193.91 L 198.08 202.84 L 202.57 208.67 L 209.80 219.12 L 216.20 227.71 L 214.32 222.24 L 219.84 229.72 L 223.84 234.43 L 226.15 235.38 L 231.92 241.77 L 237.39 248.75 L 237.44 245.93 L 241.84 251.06 L 242.64 251.47 L 241.52 249.26 L 242.00 248.98 L 247.16 253.62 L 251.28 257.29 L 252.84 259.44 L 254.82 258.56 L 257.20 263.67 L 257.12 260.20 L 265.68 272.26 L 270.08 277.80 L 273.40 280.64 L 283.80 293.39 L 285.52 291.93 L 293.04 300.66 L 296.88 302.33 L 305.88 313.06 L 312.90 319.67 L 317.32 321.79 L 322.88 324.91 L 326.20 325.67 L 329.24 323.46 L 337.84 332.39 L 343.80 338.28 L 345.92 342.09 L 352.28 350.34 L 353.23 346.28 L 356.68 352.55 L 358.93 357.30 L 357.44 352.62 L 362.84 358.37 L 365.64 355.33 L 371.60 362.32 L 376.96 369.67 L 385.51 375.87 L 392.97 384.25 L 398.72 395.30 L 407.97 411.20 L 414.65 416.95 L 420.64 419.41 L 424.00 420.80 L 428.76 422.81 L 433.29 425.96 L 452.28 437.36 L 455.88 436.52 L 458.40 438.92 L 460.20 435.69 L 461.60 432.27 L 450.84 424.75 L 459.00 430.15 L 461.60 427.73 " fill="none" stroke="#EE7309" stroke-width="4" stroke-opacity="0.8" stroke-linecap="round" stroke-linejoin="round"/>
    <!-- End Point -->
    <circle cx="461.60" cy="427.73" r="8" fill="#EE7309" stroke="#fff" stroke-width="3"/>
</svg>