<svg xmlns="http://www.w3.org/2000/svg" width="1000" height="900" viewBox="0 0 1000 900">
    <!-- Path for United States -->
    <path d="M 361.40 500.40 L 370.60 516.20 L 375.24 524.10 L 390.76 550.70 L 390.92 550.42 L 400.56 566.71 L 405.12 574.19 L 416.37 593.39 L 408.76 579.11 L 416.00 591.23 L 422.48 602.32 L 422.93 602.26 L 427.32 609.59 L 432.48 618.11 L 428.60 609.73 L 431.16 613.33 L 438.00 624.90 L 443.56 634.26 L 446.28 638.97 L 439.95 624.96 L 447.64 638.27 L 439.39 622.74 L 441.60 624.49 L 454.88 648.74 L 451.16 639.66 L 453.16 641.87 L 457.36 647.77 L 457.80 646.60 L 458.28 645.62 L 462.32 652.49 L 458.64 643.90 L 453.00 631.77 L 446.76 620.26 L 450.64 627.67 L 454.04 632.87 L 457.20 637.37 L 463.44 647.49 L 466.36 651.84 L 461.40 639.38 L 466.00 645.41 L 471.28 654.82 L 475.32 658.91 L 478.36 661.69 L 481.28 662.32 L 483.24 666.54 L 482.92 666.82 L 482.64 665.36 L 486.00 668.83 L 488.32 670.63 L 487.28 659.96 L 491.44 667.85 L 494.44 669.87 L 496.20 667.65 L 499.04 666.19 L 500.92 661.41 L 504.88 662.73 L 507.32 664.19 L 509.08 663.08 L 510.32 660.51 L 513.08 661.01 L 513.08 665.56 L 514.64 664.53 L 516.20 663.77 L 517.28 663.42 L 518.72 662.31 L 520.28 661.14 L 521.64 660.17 L 522.60 662.11 L 523.84 659.82 L 526.32 655.93 L 526.60 656.84 L 528.64 654.14 L 530.04 651.31 L 531.88 648.66 L 532.92 645.20 L 535.08 641.18 L 534.32 639.16 L 534.48 637.25 L 534.04 634.12 L 534.04 631.77 L 535.60 625.18 L 537.48 620.39 L 537.36 616.59 L 538.00 608.98 L 537.28 606.33 L 539.48 603.63 L 539.48 601.97 L 538.80 598.58 L 540.28 600.17 L 553.48 610.15 L 560.48 612.43 L 561.76 602.87 L 559.32 600.31 L 562.56 600.79 L 563.36 600.65 L 563.23 597.27 L 563.77 598.70 L 564.52 598.92 L 566.28 593.10 L 560.67 586.05 L 561.20 586.80 L 563.92 588.60 L 566.73 587.89 L 565.28 585.00 L 564.59 585.77 L 565.51 580.02 L 563.72 575.23 L 564.48 572.66 L 565.15 566.79 L 564.72 564.49 L 564.24 564.35 L 564.28 562.62 L 563.64 558.05 L 561.40 558.60 L 560.56 560.61 L 564.52 555.41 L 564.44 554.03 L 563.37 557.54 L 562.08 557.28 L 560.60 557.77 L 566.72 547.03 L 563.52 553.13 L 564.71 551.90 " fill="none" stroke="#1E6DA9" stroke-width="4" stroke-opacity="0.8" stroke-linecap="round" stroke-linejoin="round"/>
    <!-- End Point -->
    <circle cx="564.71" cy="551.90" r="8" fill="#1E6DA9" stroke="#fff" stroke-width="3"/>
</svg>